<svg width="129" height="53" viewBox="0 0 129 53" fill="none" xmlns="http://www.w3.org/2000/svg">
<g filter="url(#filter0_d)">
<path fill-rule="evenodd" clip-rule="evenodd" d="M67.8711 37.699V26.6193L54.9896 21.63L61.7505 15.0648L52.8898 7.20581L50.3768 12.0162L50.4732 7.39162L39.2441 10.977L39.5333 17.0055L41.4404 16.51L43.4232 37.7816L51.3407 36.6186L51.3269 29.5166L67.8711 37.699Z" fill="#0B0000"/>
<path fill-rule="evenodd" clip-rule="evenodd" d="M41.3574 12.5245L48.1802 10.4943L48.6002 17.5206L53.6261 10.4668L58.535 15.1395L51.6708 22.3723L65.7984 27.9672V34.4016L49.3851 26.1917L49.4126 34.7939L45.1647 35.372L43.354 13.8526L41.44 14.3481L41.3574 12.5245Z" fill="white"/>
<path fill-rule="evenodd" clip-rule="evenodd" d="M93.0888 8.26465H85.6532L85.4398 9.48272H77.6187L73.9629 31.8279L82.8856 33.2318L83.3744 30.0249L85.7083 34.326L87.1266 31.5801L87.6498 36.0877L97.7636 37.8701L93.0888 8.26465Z" fill="#0B0000"/>
<path fill-rule="evenodd" clip-rule="evenodd" d="M87.609 10.3303H91.3956L95.2304 35.2217L89.64 34.3684L88.1529 24.5206L86.053 29.9503L82.8998 23.1649H82.8653L81.6192 31.0307L76.3799 30.1155L79.4987 11.4796H84.8L86.1218 18.7055L87.609 10.3303Z" fill="white"/>
<path fill-rule="evenodd" clip-rule="evenodd" d="M102.556 10.302L113.744 12.7588L114.577 16.8879L115.479 13.1648L125.001 15.4702L115.858 43.0043L108.842 40.7952L108.787 38.0356L102.054 37.0928L104.326 16.8879L102.639 16.5094L102.556 10.302Z" fill="#0B0000"/>
<path fill-rule="evenodd" clip-rule="evenodd" d="M104.546 12.8823L111.837 14.3481L114.295 25.9784L116.808 15.5525L122.357 16.7843L114.543 40.4439L110.66 39.2809L110.322 24.9805L108.367 36.012L104.133 35.3445L106.033 15.3116L104.436 14.8849L104.546 12.8823Z" fill="white"/>
<path fill-rule="evenodd" clip-rule="evenodd" d="M101.482 33.9131C99.0656 34.8215 96.4976 34.7183 94.4322 33.6172C92.5182 32.6056 91.1825 30.8507 90.6662 28.683C89.6335 24.3612 92.4906 19.427 97.0346 17.6859C99.4787 16.7637 102.067 16.8738 104.147 17.9818C106.04 18.9865 107.362 20.7001 107.864 22.8059C108.918 27.1896 106.061 32.172 101.482 33.9131Z" fill="#0B0000"/>
<path fill-rule="evenodd" clip-rule="evenodd" d="M106.094 23.2058C105.268 19.7374 101.564 17.9963 97.7635 19.4277C94.0801 20.8385 91.6636 24.823 92.4966 28.2914C93.3504 31.87 97.0199 33.6042 100.82 32.1728C104.531 30.7689 106.948 26.7568 106.094 23.2058Z" fill="white"/>
<path fill-rule="evenodd" clip-rule="evenodd" d="M103.333 23.8171C103.258 25.7303 101.592 27.1754 99.5537 27.0928C97.5502 27.0103 96.008 25.4412 96.0837 23.5281C96.1595 21.7319 97.8187 20.2868 99.8566 20.3693C101.867 20.4519 103.409 22.021 103.333 23.8171Z" fill="#0B0000"/>
<path fill-rule="evenodd" clip-rule="evenodd" d="M100.744 20.4519C99.5255 20.4038 98.5065 21.2433 98.4583 22.3238C98.417 23.4042 99.3671 24.3264 100.586 24.3745C101.804 24.4227 102.823 23.5831 102.871 22.5027C102.913 21.4223 101.963 20.5001 100.744 20.4519Z" fill="white"/>
<path fill-rule="evenodd" clip-rule="evenodd" d="M39.8003 36.3227C37.3287 37.3688 34.6505 37.3688 32.4543 36.3159C30.4233 35.3386 28.9568 33.5769 28.3303 31.3403C27.0773 26.8878 29.8381 21.637 34.4922 19.6344C36.9914 18.5815 39.6902 18.5815 41.9002 19.6482C43.9106 20.6116 45.3564 22.339 45.9691 24.5067C47.2497 29.0212 44.482 34.327 39.8003 36.3227Z" fill="#0B0000"/>
<path fill-rule="evenodd" clip-rule="evenodd" d="M44.2004 24.7815C43.1814 21.1755 39.2295 19.5101 35.3052 21.1755C31.4979 22.8134 29.1365 27.0938 30.1554 30.6999C31.2019 34.4229 35.1262 36.0814 39.0505 34.4229C42.8854 32.7851 45.2468 28.4702 44.2004 24.7815Z" fill="white"/>
<path fill-rule="evenodd" clip-rule="evenodd" d="M41.5436 25.4693C41.5436 27.3825 39.9395 28.8896 37.9016 28.8896C35.8981 28.8896 34.2939 27.3825 34.2939 25.4693C34.2939 23.6732 35.8981 22.1592 37.936 22.1592C39.9395 22.1592 41.5436 23.6663 41.5436 25.4693Z" fill="#0B0000"/>
<path fill-rule="evenodd" clip-rule="evenodd" d="M38.8233 22.207C37.6047 22.207 36.6133 23.0879 36.6133 24.1683C36.6133 25.2488 37.5978 26.1297 38.8233 26.1297C40.0419 26.1297 41.0333 25.2488 41.0333 24.1683C41.0333 23.0879 40.0419 22.207 38.8233 22.207Z" fill="white"/>
<path fill-rule="evenodd" clip-rule="evenodd" d="M26.1621 29.675C31.4772 25.773 34.0108 19.8753 32.0899 15.4503C31.25 13.5165 29.7766 11.9199 27.9728 10.9152C26.706 10.0756 25.1982 9.54573 23.6147 9.3668C19.7317 8.68551 15.0707 9.38745 10.4855 11.335C8.79869 12.0507 7.22208 12.8765 5.80381 13.778L4 14.9135L5.08091 16.7441L8.44068 22.4216C8.44068 22.4216 9.4734 24.1695 9.48028 24.1626L11.3048 23.2749L11.5595 23.151L19.9107 41.7938L20.7162 43.583L22.5889 42.9843L27.1122 41.5392L29.095 40.906L28.5718 38.8965L26.1621 29.675Z" fill="black"/>
<path fill-rule="evenodd" clip-rule="evenodd" d="M30.0711 16.3232C29.4033 14.7886 28.2536 13.5843 26.7527 12.7378C25.6649 12.0152 24.405 11.6574 23.2277 11.5266C19.8817 10.9417 15.7164 11.4922 11.3308 13.3503C9.76793 14.0109 8.30835 14.7679 6.96582 15.6213L10.3256 21.2987C11.1862 20.879 12.1156 20.4316 12.6182 20.1633L21.9058 40.8843L26.4291 39.4391L23.6408 28.7173C28.9902 25.4347 31.6891 20.0463 30.0711 16.3232Z" fill="white"/>
<path fill-rule="evenodd" clip-rule="evenodd" d="M77.5854 21.7745L74.4046 18.9117L75.9675 17.2532L77.372 15.7598L76.0777 14.1701C73.5509 11.0596 69.5096 9.81397 65.2685 10.8394C59.3683 12.257 56.0429 17.3358 57.3579 22.9031C57.8881 25.1466 59.2925 27.0666 61.3236 28.3122C63.747 29.8056 66.797 30.2116 69.902 29.4615C73.1792 28.6701 75.5888 27.3419 77.7025 25.1604L79.3961 23.4124L77.5854 21.7745Z" fill="#0B0000"/>
<path fill-rule="evenodd" clip-rule="evenodd" d="M72.6954 20.4185C71.8968 21.3613 70.9811 22.2215 69.3563 22.6137C68.8124 22.7445 68.0757 22.8684 67.6076 22.7858L74.4442 15.5117C72.5164 13.1375 69.3494 12.0364 65.7624 12.9035C61.3011 13.9771 58.2856 17.6933 59.4009 22.4279C60.2959 26.2336 64.5094 28.5665 69.3976 27.3897C72.3581 26.674 74.4166 25.5316 76.2617 23.6254L72.6954 20.4185Z" fill="white"/>
<path fill-rule="evenodd" clip-rule="evenodd" d="M62.0176 9.64138L70.3895 0L75.0229 6.91619L64.441 12.6005L62.0176 9.64138Z" fill="#0B0000"/>
<path fill-rule="evenodd" clip-rule="evenodd" d="M70.0309 3.06909L72.4818 6.39988L65.48 9.8683L64.9912 9.13195L70.0309 3.06909Z" fill="white"/>
<path fill-rule="evenodd" clip-rule="evenodd" d="M64.8424 20.5281C64.3398 19.6128 64.4362 18.436 65.1867 17.6171C65.9096 16.8257 67.0111 16.5986 67.9543 16.9633L64.8424 20.5281ZM65.1867 17.6171C64.4431 18.436 64.3398 19.6128 64.8424 20.5281L67.9543 16.9633C67.0111 16.5986 65.9027 16.8257 65.1867 17.6171ZM69.6824 16.4266C68.0852 14.9745 65.6204 15.0915 64.1677 16.6881C62.715 18.2846 62.8321 20.7483 64.4293 22.2004C64.5601 22.3242 64.7047 22.4275 64.8493 22.5238L69.9647 16.7018C69.8683 16.6055 69.7788 16.516 69.6824 16.4266ZM64.8424 20.5281C64.3398 19.6128 64.4362 18.436 65.1867 17.6171C65.9096 16.8257 67.0111 16.5986 67.9543 16.9633L64.8424 20.5281Z" fill="black"/>
<path fill-rule="evenodd" clip-rule="evenodd" d="M26.5551 19.8679C26.1558 17.6726 23.2986 16.4407 20.4346 17.9754L21.1506 20.4941L22.2797 24.2103L22.796 25.9032C24.9441 24.5475 27.1059 22.9096 26.5551 19.8679ZM23.7117 23.2262C23.4019 22.2077 22.7341 20.0124 22.7341 20.0124C22.741 20.0261 22.5964 19.5375 22.4449 18.9939C23.0508 18.8838 23.6291 18.9388 24.111 19.1728C24.3795 19.3035 24.8408 19.5995 24.9372 20.1638C25.1644 21.4231 24.7307 22.3246 23.7117 23.2262Z" fill="black"/>
<path fill-rule="evenodd" clip-rule="evenodd" d="M27.7822 44.9248C27.7891 44.9455 27.796 44.9592 27.8029 44.9799C27.8029 44.9867 27.8098 44.9936 27.8098 45.0005C27.8029 44.973 27.7891 44.9523 27.7822 44.9248Z" fill="black"/>
<path fill-rule="evenodd" clip-rule="evenodd" d="M117.873 40.5066H119.932V40.8094H119.078V43.046H118.727V40.8094H117.873V40.5066Z" fill="black"/>
<path fill-rule="evenodd" clip-rule="evenodd" d="M120.237 43.046V40.5066H120.733L121.463 42.6537L122.186 40.5066H122.674V43.046H122.351V41.5457C122.351 41.4907 122.351 41.4081 122.358 41.2911C122.358 41.1741 122.358 41.0434 122.358 40.9057L121.635 43.046H121.298L120.568 40.9057V40.9814C120.568 41.0434 120.568 41.1397 120.575 41.2636C120.575 41.3875 120.582 41.4838 120.582 41.5457V43.046H120.237Z" fill="black"/>
</g>
<defs>
<filter id="filter0_d" x="0" y="0" width="129.001" height="53.0005" filterUnits="userSpaceOnUse" color-interpolation-filters="sRGB">
<feFlood flood-opacity="0" result="BackgroundImageFix"/>
<feColorMatrix in="SourceAlpha" type="matrix" values="0 0 0 0 0 0 0 0 0 0 0 0 0 0 0 0 0 0 127 0"/>
<feOffset dy="4"/>
<feGaussianBlur stdDeviation="2"/>
<feColorMatrix type="matrix" values="0 0 0 0 0 0 0 0 0 0 0 0 0 0 0 0 0 0 0.25 0"/>
<feBlend mode="normal" in2="BackgroundImageFix" result="effect1_dropShadow"/>
<feBlend mode="normal" in="SourceGraphic" in2="effect1_dropShadow" result="shape"/>
</filter>
</defs>
</svg>
